<?xml version="1.0" standalone="no"?>
<!DOCTYPE svg PUBLIC "-//W3C//DTD SVG 20010904//EN"
 "http://www.w3.org/TR/2001/REC-SVG-20010904/DTD/svg10.dtd">
<svg version="1.0" xmlns="http://www.w3.org/2000/svg"
 width="176" height="26,19" viewBox="0 0 909.000000 125.000000"
 preserveAspectRatio="xMidYMid meet">

<g transform="translate(0.000000,125.000000) scale(0.100000,-0.100000)"
fill="#000000" stroke="none">
<path d="M7253 1019 c-41 -15 -44 -36 -41 -296 3 -229 5 -252 24 -294 49 -106
132 -159 249 -159 57 0 82 5 123 26 61 30 116 96 133 158 17 64 8 165 -22 222
-66 128 -245 173 -356 88 l-33 -25 0 124 c0 124 -6 148 -40 159 -8 3 -25 2
-37 -3z m319 -344 c104 -71 81 -252 -38 -294 -134 -47 -255 109 -185 239 42
80 148 106 223 55z"/>
<path d="M7890 1017 c-13 -7 -27 -25 -32 -42 -4 -16 -7 -151 -5 -300 2 -253 3
-273 24 -317 25 -54 56 -78 112 -85 53 -7 91 16 91 56 0 34 -20 54 -55 54 -52
0 -55 17 -55 322 0 290 -2 304 -41 318 -9 3 -27 0 -39 -6z"/>
<path d="M222 983 l3 -28 123 -3 122 -3 0 -322 c0 -238 3 -326 12 -335 16 -16
47 -15 54 1 2 7 6 157 7 333 l2 319 125 5 125 5 3 28 3 27 -291 0 -291 0 3
-27z"/>
<path d="M1469 768 c-1 -296 -1 -294 20 -343 58 -131 227 -186 359 -118 124
64 173 212 114 346 -69 157 -283 195 -405 72 -16 -15 -17 -7 -17 118 0 75 -3
142 -6 151 -4 10 -18 16 -35 16 l-29 0 -1 -242z m355 -62 c131 -77 118 -287
-22 -348 -91 -41 -199 -3 -241 84 -23 49 -28 128 -10 175 14 37 57 82 94 99
50 22 132 18 179 -10z"/>
<path d="M1224 966 c-8 -35 3 -63 28 -69 44 -12 80 32 58 73 -8 14 -21 20 -45
20 -28 0 -36 -4 -41 -24z"/>
<path d="M2210 971 c-27 -52 12 -97 65 -73 27 13 35 58 13 80 -19 19 -66 15
-78 -7z"/>
<path d="M2412 978 c-15 -15 -16 -60 0 -76 18 -18 53 -14 73 8 27 30 10 74
-30 78 -17 2 -36 -3 -43 -10z"/>
<path d="M4730 960 c-11 -6 -16 -33 -20 -92 -4 -73 -7 -83 -23 -80 -28 5 -67
-25 -67 -52 0 -29 20 -46 57 -50 l28 -3 5 -149 c5 -156 9 -171 57 -216 35 -33
73 -48 122 -48 97 0 105 107 8 114 -66 5 -72 19 -75 170 l-3 133 52 0 c58 1
84 21 73 57 -10 33 -18 37 -70 39 l-49 2 -5 78 c-4 63 -9 82 -24 93 -23 16
-45 18 -66 4z"/>
<path d="M6287 958 c-12 -10 -17 -32 -19 -93 l-3 -80 -30 -3 c-38 -5 -55 -19
-55 -47 0 -28 20 -45 57 -49 l28 -3 5 -149 c5 -156 9 -171 57 -216 49 -46 115
-61 168 -36 58 26 21 108 -51 108 -55 0 -64 24 -64 172 l0 128 32 -4 c18 -2
45 1 60 6 23 8 28 16 28 44 0 36 -7 40 -80 47 l-35 3 -3 75 c-2 61 -6 77 -23
92 -25 20 -49 22 -72 5z"/>
<path d="M3144 801 c-86 -22 -142 -90 -130 -160 12 -73 59 -110 180 -140 94
-24 126 -43 126 -77 0 -19 -8 -28 -35 -40 -61 -25 -130 -14 -192 33 -35 27
-59 25 -89 -8 -28 -31 -9 -66 55 -102 45 -26 68 -31 138 -35 97 -5 153 11 197
57 46 48 51 126 13 184 -20 30 -86 62 -172 82 -86 20 -105 30 -105 60 0 32 27
45 92 45 42 0 62 -6 88 -25 42 -31 84 -32 104 -3 37 53 -58 125 -174 133 -36
2 -79 1 -96 -4z"/>
<path d="M3564 800 c-12 -5 -24 -13 -28 -18 -3 -5 -6 -83 -7 -173 -2 -180 6
-216 59 -273 62 -66 190 -87 281 -46 l44 20 14 -20 c18 -26 57 -26 83 0 19 19
20 33 20 248 0 254 -3 265 -60 265 -55 0 -60 -17 -60 -195 l0 -157 -31 -35
c-41 -47 -97 -56 -163 -27 -67 29 -76 56 -76 236 0 132 -2 147 -20 165 -22 22
-25 23 -56 10z"/>
<path d="M4278 800 c-73 -22 -128 -82 -128 -139 0 -35 26 -86 55 -110 25 -19
109 -49 186 -65 15 -3 37 -14 49 -24 32 -26 21 -66 -21 -81 -62 -21 -94 -14
-203 45 -26 15 -30 15 -55 -3 -38 -29 -38 -58 -1 -93 41 -38 115 -60 204 -60
143 1 219 69 206 185 -7 66 -61 106 -184 137 -101 25 -116 33 -116 63 0 53
113 67 178 21 46 -31 86 -34 105 -5 20 28 11 55 -29 85 -60 47 -172 66 -246
44z"/>
<path d="M5189 796 c-119 -42 -179 -130 -179 -262 0 -104 56 -195 145 -239 57
-27 173 -32 233 -10 57 22 92 51 92 80 0 48 -41 57 -111 25 -54 -24 -119 -25
-166 -4 -32 16 -83 76 -83 99 0 7 62 10 182 9 166 -1 183 1 200 18 17 17 19
28 13 71 -10 70 -26 107 -70 156 -58 63 -169 88 -256 57z m157 -111 c23 -15
64 -71 64 -87 0 -5 -65 -8 -145 -8 -80 0 -145 2 -145 5 0 33 61 96 105 108 32
9 94 0 121 -18z"/>
<path d="M5647 790 c-22 -18 -22 -23 -22 -255 0 -223 1 -237 19 -251 27 -19
60 -18 79 4 14 16 17 43 17 170 0 83 4 162 10 176 16 44 66 68 133 63 49 -3
63 -8 90 -35 l32 -32 5 -164 c5 -178 11 -196 61 -196 50 0 59 27 59 186 0 156
-12 213 -55 270 -37 48 -97 76 -175 81 -55 4 -73 1 -113 -20 -44 -23 -48 -23
-57 -7 -14 26 -57 31 -83 10z"/>
<path d="M6750 795 c-58 -19 -113 -64 -148 -123 -24 -42 -27 -57 -27 -137 0
-73 4 -98 22 -131 25 -48 82 -101 129 -120 67 -28 198 -11 245 32 16 14 19 15
19 2 0 -47 79 -64 106 -23 25 38 16 292 -12 355 -56 124 -203 188 -334 145z
m168 -115 c48 -29 72 -75 72 -138 0 -73 -23 -117 -77 -149 -35 -20 -53 -24
-88 -21 -103 12 -172 126 -134 225 12 33 56 82 84 93 37 16 109 11 143 -10z"/>
<path d="M8289 797 c-119 -45 -179 -131 -179 -257 0 -119 66 -220 167 -254
120 -41 303 6 303 79 0 48 -41 57 -111 25 -85 -38 -188 -15 -229 53 -35 57
-36 56 161 52 170 -3 182 -2 201 17 17 17 19 27 13 71 -14 100 -53 160 -130
199 -49 26 -147 33 -196 15z m157 -112 c23 -15 64 -71 64 -87 0 -5 -65 -8
-145 -8 -80 0 -145 2 -145 5 0 33 61 96 105 108 32 9 94 0 121 -18z"/>
<path d="M970 789 c-13 -6 -39 -21 -56 -34 l-32 -24 -6 29 c-5 25 -10 30 -36
30 -22 0 -30 -5 -30 -17 -2 -194 1 -476 5 -483 10 -17 44 -11 55 9 6 11 10 87
10 175 0 85 4 166 9 179 17 45 67 71 150 77 65 4 76 8 79 24 3 11 -4 26 -14
33 -21 15 -98 16 -134 2z"/>
<path d="M1247 789 c-15 -9 -17 -33 -17 -254 0 -229 1 -244 19 -250 10 -3 26
-3 35 1 14 5 16 33 16 250 0 223 -1 244 -18 253 -11 6 -24 6 -35 0z"/>
<path d="M2110 618 c0 -191 10 -231 67 -284 78 -73 217 -76 311 -8 21 16 22
15 22 -4 0 -27 24 -45 50 -37 20 6 20 11 18 253 l-3 247 -30 0 -30 0 -5 -175
c-4 -147 -8 -179 -23 -202 -47 -69 -185 -85 -253 -29 -47 38 -54 70 -54 234 0
162 -4 177 -47 177 l-23 0 0 -172z"/>
</g>
</svg>
